<svg xmlns="http://www.w3.org/2000/svg" viewBox="0 0 741.86 1264.68"><defs><style>.cls-1{fill:#fff;}.cls-2{fill:#4d4d4d;}</style></defs><g id="Layer_2" data-name="Layer 2"><g id="Calque_1" data-name="Calque 1"><path class="cls-1" d="M85.52,1263.68A84.61,84.61,0,0,1,1,1179.16V493.24H2a46.35,46.35,0,1,0,0-92.7H1v-315A84.61,84.61,0,0,1,85.52,1H656.35a84.61,84.61,0,0,1,84.51,84.52v315h-1a46.35,46.35,0,0,0,0,92.7h1v685.92a84.61,84.61,0,0,1-84.51,84.52Z"/><path class="cls-2" d="M656.35,2a83.51,83.51,0,0,1,83.51,83.52v314a47.35,47.35,0,0,0,0,94.7v684.92a83.51,83.51,0,0,1-83.51,83.52H85.52A83.52,83.52,0,0,1,2,1179.16V494.24a47.35,47.35,0,1,0,0-94.7v-314A83.52,83.52,0,0,1,85.52,2H656.35m0-2H85.52A85.61,85.61,0,0,0,0,85.52v316H2a45.35,45.35,0,1,1,0,90.7H0v686.92a85.61,85.61,0,0,0,85.52,85.52H656.35a85.61,85.61,0,0,0,85.51-85.52V492.24h-2a45.35,45.35,0,0,1,0-90.7h2v-316A85.61,85.61,0,0,0,656.35,0Z"/></g></g></svg>