<?xml version="1.0" encoding="UTF-8"?><svg id="Calque_1" xmlns="http://www.w3.org/2000/svg" viewBox="0 0 51.88 45.23"><defs><style>.cls-1{fill:#1d1d1b;}</style></defs><path class="cls-1" d="M38.39,10.28c-3.08-3.08-7.35-4.99-12.05-4.99-4.7,0-8.97,1.91-12.05,4.99-3.08,3.08-4.99,7.35-4.99,12.05,0,4.27,1.58,8.18,4.18,11.17l-2.76,6.95,8-2.88c2.29,1.15,4.88,1.81,7.62,1.81,4.7,0,8.97-1.91,12.05-4.99,3.08-3.08,4.99-7.35,4.99-12.05,0-4.7-1.91-8.97-4.99-12.05Zm-2.19,21.91c-2.53,2.53-6,4.08-9.86,4.08-2.46,0-4.76-.64-6.76-1.75l-.62-.34-2.83,1.02,.95-2.4-.71-.72c-2.47-2.52-3.98-5.95-3.98-9.75,0-3.85,1.56-7.33,4.08-9.86,2.53-2.53,6-4.08,9.86-4.08,3.85,0,7.33,1.56,9.86,4.08,2.53,2.53,4.08,6,4.08,9.86,0,3.85-1.56,7.33-4.08,9.86Z"/><g><rect class="cls-1" x="24.67" y="19.86" width="3.35" height="9.1"/><path class="cls-1" d="M27.95,17.34c0,.91-.74,1.64-1.64,1.64s-1.64-.74-1.64-1.64,.74-1.64,1.64-1.64,1.64,.74,1.64,1.64Z"/></g></svg>