<?xml version="1.0" encoding="UTF-8"?><svg id="Calque_1" xmlns="http://www.w3.org/2000/svg" viewBox="0 0 41.24 26.26"><defs><style>.cls-1{fill:#1d1d1b;}</style></defs><rect class="cls-1" x="24.31" y="4.59" width="4.42" height="13.71" transform="translate(37.18 38.29) rotate(-135)"/><path class="cls-1" d="M33.49,7.6l1.39-1.39c.1-.1,.12-.25,.03-.33l-2.83-2.83c-.08-.08-.23-.07-.33,.03l-1.39,1.39,3.13,3.13Z"/><polygon class="cls-1" points="18.13 19.83 22.82 18.27 19.7 15.14 18.13 19.83"/><path class="cls-1" d="M27.63,14.27v3.83c0,1.4-1.14,2.54-2.54,2.54H13.57c-1.4,0-2.54-1.14-2.54-2.54V6.57c0-1.4,1.14-2.54,2.54-2.54h11.53c1.36,0,2.47,1.07,2.53,2.42l1.05-1.05c-.06-1.35-1.17-2.42-2.53-2.42H12.51c-1.4,0-2.54,1.14-2.54,2.54v13.64c0,1.4,1.14,2.54,2.54,2.54h13.64c1.4,0,2.54-1.14,2.54-2.54v-5.94l-1.05,1.05Z"/></svg>