<?xml version="1.0" encoding="UTF-8"?><svg id="Calque_1" xmlns="http://www.w3.org/2000/svg" viewBox="0 0 42.12 42.01"><defs><style>.cls-1{fill:#1d1d1b;}</style></defs><path class="cls-1" d="M18.21,18.87v-.38H6.99c-.34,0-.62-.28-.62-.62V6.65c0-.34,.28-.62,.62-.62h11.22c.34,0,.62,.28,.62,.62v11.22c0,.34-.28,.62-.62,.62v.76c.77,0,1.39-.62,1.39-1.39V6.65c0-.77-.62-1.39-1.39-1.39H6.99c-.77,0-1.39,.62-1.39,1.39v11.22c0,.77,.62,1.39,1.39,1.39h11.22v-.38Z"/><rect class="cls-1" x="8.02" y="7.68" width="9.16" height="9.16" rx="3.95" ry="3.95"/><path class="cls-1" d="M18.21,35.41v-.38H6.99c-.34,0-.62-.28-.62-.62v-11.22c0-.34,.28-.62,.62-.62h11.22c.34,0,.62,.28,.62,.62v11.22c0,.34-.28,.62-.62,.62v.76c.77,0,1.39-.62,1.39-1.39v-11.22c0-.77-.62-1.39-1.39-1.39H6.99c-.77,0-1.39,.62-1.39,1.39v11.22c0,.77,.62,1.39,1.39,1.39h11.22v-.38Z"/><rect class="cls-1" x="8.02" y="24.21" width="9.16" height="9.16" rx="3.95" ry="3.95"/><path class="cls-1" d="M35,35.41v-.38h-11.22c-.34,0-.62-.28-.62-.62v-11.22c0-.34,.28-.62,.62-.62h11.22c.34,0,.62,.28,.62,.62v11.22c0,.34-.28,.62-.62,.62v.76c.77,0,1.39-.62,1.39-1.39v-11.22c0-.77-.62-1.39-1.39-1.39h-11.22c-.77,0-1.39,.62-1.39,1.39v11.22c0,.77,.62,1.39,1.39,1.39h11.22v-.38Z"/><rect class="cls-1" x="24.81" y="24.21" width="9.16" height="9.16" rx="3.95" ry="3.95"/><path class="cls-1" d="M35,18.87v-.38h-11.22c-.34,0-.62-.28-.62-.62V6.65c0-.34,.28-.62,.62-.62h11.22c.34,0,.62,.28,.62,.62v11.22c0,.34-.28,.62-.62,.62v.76c.77,0,1.39-.62,1.39-1.39V6.65c0-.77-.62-1.39-1.39-1.39h-11.22c-.77,0-1.39,.62-1.39,1.39v11.22c0,.77,.62,1.39,1.39,1.39h11.22v-.38Z"/><rect class="cls-1" x="24.81" y="7.68" width="9.16" height="9.16" rx="3.95" ry="3.95"/></svg>