<?xml version="1.0" encoding="UTF-8"?>
<svg
  width="50"
  height="50"
  id="Calque_1" xmlns="http://www.w3.org/2000/svg" viewBox="0 0 35.47 42.01"><defs><style>.cls-1{fill:#1d1d1b;}</style></defs><path class="cls-1" d="M27.18,10.16c-2.35-2.61-5.75-4.42-9.3-4.45-.09,0-.18,0-.28,0-3.65,.07-7.18,2.14-9.41,4.97-2.39,3.04-2.45,7-1.42,10.59,.79,2.76,2.13,5.35,3.63,7.79,.99,1.6,2.07,3.14,3.21,4.64,.37,.48,4.31,5.19,4.29,5.21,4.71-5.33,9.81-11.6,11.41-18.72,.79-3.54,.35-7.26-2.14-10.03Zm-9.27,13.17c-2.87,0-5.19-2.32-5.19-5.19s2.32-5.19,5.19-5.19,5.19,2.32,5.19,5.19-2.32,5.19-5.19,5.19Z"/></svg>