<?xml version="1.0" encoding="UTF-8"?>
<svg
  id="Calque_1"
  xmlns="http://www.w3.org/2000/svg"
  viewBox="0 0 61.63 47.44"
>
  <defs><style>.cls-1{fill:#FFFFFF;}</style></defs>
  <path class="cls-1" d="M52.74,7.17H10.37c-1.81,0-3.28,1.47-3.28,3.28v25.04c0,1.81,1.47,3.28,3.28,3.28H52.74c1.81,0,3.28-1.47,3.28-3.28V10.45c0-1.81-1.47-3.28-3.28-3.28Zm.48,26.51c0,1.81-1.47,3.28-3.28,3.28H13.16c-1.81,0-3.28-1.47-3.28-3.28V12.26c0-.4,.08-.79,.21-1.15l21.46,11.86,21.44-11.93c.15,.38,.24,.79,.24,1.22v21.43Z"/>
</svg>