<?xml version="1.0" encoding="UTF-8"?><svg id="Calque_1" xmlns="http://www.w3.org/2000/svg" viewBox="0 0 66.51 28.38"><defs><style>.cls-1{fill:#1d1d1b;}</style></defs><path class="cls-1" d="M34.29,4.24c-15.1,0-20.88,9.64-20.88,9.64,0,0,4.36,9.64,19.46,9.64s20.88-9.64,20.88-9.64c0,0-4.36-9.64-19.46-9.64Zm-.32,17.67c-4.43,0-8.03-3.6-8.03-8.03s3.6-8.03,8.03-8.03,8.03,3.6,8.03,8.03-3.6,8.03-8.03,8.03Z"/><path class="cls-1" d="M33.97,8.09c-.93,0-1.81,.23-2.6,.62,.21,.27,.35,.61,.35,.99,0,.89-.72,1.61-1.61,1.61-.42,0-.8-.16-1.08-.43-.53,.87-.84,1.9-.84,3,0,3.19,2.59,5.78,5.78,5.78s5.78-2.59,5.78-5.78-2.59-5.78-5.78-5.78Z"/></svg>