<?xml version="1.0" encoding="UTF-8"?><svg id="Calque_1" xmlns="http://www.w3.org/2000/svg" viewBox="0 0 50.55 40.78"><defs><style>.cls-1{fill:#1d1d1b;}</style></defs><path class="cls-1" d="M28.62,32.37c-3.36,0-6.39-1.36-8.6-3.56-2.2-2.21-3.56-5.23-3.56-8.6,0-1.36,.22-2.66,.63-3.87l-3.21-1.08c-.52,1.55-.8,3.22-.8,4.95,0,4.29,1.74,8.18,4.55,10.99,2.81,2.81,6.7,4.55,10.99,4.55v-3.39h0Z"/><path class="cls-1" d="M18.83,10.43c-.56,3.13-.81,7.27-.25,10.26l-3.38-4.09-5.22-.98c2.89-.96,6.39-3.19,8.85-5.2Z"/><path class="cls-1" d="M31.07,8.31c2.77,.57,5.19,2.07,6.93,4.18,1.74,2.11,2.77,4.79,2.78,7.73,0,1.95-.46,3.79-1.27,5.42l3.03,1.51c1.04-2.09,1.63-4.45,1.63-6.93,0-3.75-1.33-7.2-3.55-9.89-2.22-2.68-5.32-4.61-8.86-5.34l-.68,3.32h0Z"/><path class="cls-1" d="M36.97,31.26c.99-3.02,1.81-7.09,1.67-10.13l2.78,4.52,5.03,1.69c-2.99,.55-6.77,2.27-9.49,3.92Z"/></svg>