<svg xmlns="http://www.w3.org/2000/svg" viewBox="0 0 126.42 38.77"><defs><style>.cls-1{fill:#b2b2b2;}</style></defs><g id="Layer_2" data-name="Layer 2"><g id="Calque_1" data-name="Calque 1"><g id="ehn6hm"><path class="cls-1" d="M119.25,8.91a44.65,44.65,0,0,1,2.25,12.8l1.32.08a71,71,0,0,1,0,8,17.65,17.65,0,0,1-.11,3.1c-.16.58-.44,1.35-.89,1.58a6.83,6.83,0,0,1-2.87.83c-3.65.12-7.3.1-11,.12-1.8,0-3.6,0-5.59,0,0-.68,0-1.6,0-2.51a6.3,6.3,0,0,0-4.29-5.82,6.17,6.17,0,0,0-8,5.92c0,.84,0,1.68,0,2.57a2.86,2.86,0,0,1-.35.06c-2.47-.12-4.94-.34-7.42-.35-14.07-.06-28.14-.06-42.21-.09-1.26,0-1.26,0-1.24-1.3.07-3.36-1.52-5.88-4.28-6.8a6.1,6.1,0,0,0-8,5.67c0,.76,0,1.51,0,2.37C26,35.07,25.5,35,25,35c-2.51-.08-5-.25-7.53-.18A44,44,0,0,1,6.8,33.65c-1.62-.35-3.25-.68-4.89-.94a1.74,1.74,0,0,1-1.5-1.16A5.36,5.36,0,0,1,0,29.86,149.07,149.07,0,0,1,1.17,8.64,22,22,0,0,1,1.92,6c.2-.7.8-1.23.68-2.13-.05-.41.56-1,1-1.37C5.23,1,7.11,1,9.11,1.54a16.16,16.16,0,0,0,3.77.58q22.14.07,44.29.07,7.67,0,15.32,0a1,1,0,0,0,1-.58A3.09,3.09,0,0,1,76.6.07C82.14.05,87.69,0,93.24,0c3.56,0,7.12,0,10.68.12a30,30,0,0,1,9.16,1.73,11.33,11.33,0,0,1,5.16,3.9A2.89,2.89,0,0,0,121,7.18a7.55,7.55,0,0,1,2.73.51,3.45,3.45,0,0,1,2.59,3.43c0,.87.08,1.74.12,2.62,0,.52-.23.9-.74.84a1,1,0,0,1-.61-.7c-.1-1.12,0-2.26-.14-3.37a1.48,1.48,0,0,0-1.4-1.25C122.16,9.11,120.8,9,119.25,8.91ZM14.46,15.47h8.05c.48,0,.88,0,.88-.65q0-5.16,0-10.32c0-.49-.2-.66-.69-.66-5.45,0-10.9,0-16.36,0a2.26,2.26,0,0,0-1.48.71c-2.68,3-2.76,6.51-.37,9.73a2.63,2.63,0,0,0,2.37,1.17C9.39,15.44,11.93,15.47,14.46,15.47ZM101.35,3.9c-.45,0-.7-.07-.95-.07q-9.45,0-18.89,0c-.72,0-.89.27-.88.92,0,3.27,0,6.54,0,9.81,0,.73.24.93,1,.93,6.22,0,12.43,0,18.64,0,.27,0,.55-.05.93-.08A12.75,12.75,0,0,1,101.35,3.9ZM70.57,15.47h0c2.59,0,5.19,0,7.79,0,.65,0,.93-.14.92-.87,0-3.3,0-6.59,0-9.89,0-.68-.21-.9-.91-.9q-7.77,0-15.55,0c-.72,0-.89.24-.88.91,0,3.26,0,6.53,0,9.8,0,.81.29,1,1,1C65.49,15.44,68,15.47,70.57,15.47ZM42,3.82H37.79c-4,0-8.1,0-12.16,0-.74,0-.93.26-.92,1,0,3.27,0,6.54,0,9.8,0,.62.14.89.82.89q7.83,0,15.67,0c.64,0,.85-.19.85-.85,0-2.71,0-5.42,0-8.13ZM52,15.46c2.62,0,5.25,0,7.87,0,.57,0,.85-.11.85-.77,0-3.35,0-6.71,0-10.06,0-.57-.15-.84-.79-.84q-7.82,0-15.64,0c-.69,0-.89.22-.89.9,0,3.27,0,6.54,0,9.8,0,.82.28,1,1,1C46.87,15.44,49.41,15.46,52,15.46Zm63.32-1.8c0-2.92,0-5.84,0-8.76,0-.87-.3-1.13-1.12-1.09s-1.92,0-2.89,0c-.66,0-.94.22-.94.91q0,9,0,18c0,.65.27.89.9.87,1,0,1.93,0,2.89,0,1.11,0,1.14,0,1.14-1.12Zm-6.14,8,.2-.09c0-.28,0-.56,0-.84,0-1.17,0-2.33,0-3.5,0-4.12,0-8.23,0-12.34,0-.86-.27-1.15-1.1-1.09s-1.87,0-2.8.05a1.35,1.35,0,0,0-.94.48c-2,3.08-2.48,6.33-.72,9.68a51.83,51.83,0,0,0,2.84,4.61C107.42,19.71,108.31,20.67,109.13,21.68ZM.08,29.14a6.68,6.68,0,0,0,1.64,0c.35-.1.88-.46.9-.74.1-1.27,0-2.54,0-3.89-.73,0-1.4,0-2.06,0-.19,0-.49.28-.5.44C.06,26.3.08,27.67.08,29.14Z"/><path class="cls-1" d="M26.92,33a5.77,5.77,0,1,1,11.54,0,5.77,5.77,0,0,1-11.54,0Zm2.62,0a3.13,3.13,0,1,0,3.12-3.1A3.15,3.15,0,0,0,29.54,33Z"/><path class="cls-1" d="M90.48,32.94a5.77,5.77,0,1,1,11.54.13,5.77,5.77,0,0,1-11.54-.13Zm5.8-3.08a3.13,3.13,0,0,0,0,6.26A3.19,3.19,0,0,0,99.43,33,3.16,3.16,0,0,0,96.28,29.86Z"/><path class="cls-1" d="M34.32,33a1.62,1.62,0,0,1-1.66,1.65A1.66,1.66,0,0,1,31,33,1.69,1.69,0,0,1,32.7,31.3,1.66,1.66,0,0,1,34.32,33Z"/><path class="cls-1" d="M96.32,34.65A1.64,1.64,0,0,1,94.61,33,1.7,1.7,0,0,1,96.3,31.3,1.67,1.67,0,0,1,98,33,1.64,1.64,0,0,1,96.32,34.65Z"/></g></g></g></svg>