<?xml version="1.0" encoding="UTF-8"?><svg id="Calque_1" xmlns="http://www.w3.org/2000/svg" viewBox="0 0 47.44 40.74"><defs><style>.cls-1{fill:#1d1d1b;}</style></defs><path class="cls-1" d="M37.87,8.97h-1.35v-3.81c0-.7-.57-1.27-1.27-1.27h-1.28c-.7,0-1.27,.57-1.27,1.27v3.81H13.67v-3.81c0-.7-.57-1.27-1.27-1.27h-1.28c-.7,0-1.27,.57-1.27,1.27v3.81h-1.35c-2.06,0-3.73,1.67-3.73,3.73v21.73c0,2.06,1.67,3.73,3.73,3.73h29.35c2.06,0,3.73-1.67,3.73-3.73V12.7c0-2.06-1.67-3.73-3.73-3.73Zm1.19,25.39H7.33V16.58h31.73v17.77Z"/></svg>