<?xml version="1.0" encoding="UTF-8"?>
<svg
  fill="white"
  width="50"
  height="50" id="Calque_1" xmlns="http://www.w3.org/2000/svg" viewBox="0 0 62.96 58.53"><path d="M33.23,25.85c-3.05,0-5.54,2.48-5.55,5.54,0,3.05,2.48,5.54,5.54,5.55,3.05,0,5.54-2.48,5.55-5.54,0-3.05-2.48-5.54-5.54-5.55Z"/><path d="M46.74,31.4c0-2.37,0-4.75,0-7.12,0-.75-.07-1.49-.33-2.21-.93-2.61-3.18-4.19-6.02-4.19-4.78,0-9.56-.02-14.34,.01-.72,0-1.46,.1-2.14,.33-2.63,.88-4.2,3.16-4.2,6,0,4.78,0,9.56,0,14.34,0,.74,.08,1.47,.33,2.17,.93,2.59,3.16,4.17,5.97,4.17,4.81,.01,9.62,0,14.44,0,2.15,0,3.89-.87,5.16-2.62,.81-1.11,1.13-2.38,1.13-3.74,0-2.38,0-4.77,0-7.15Zm-13.53,8.46c-4.66-.02-8.48-3.85-8.46-8.49,.03-4.66,3.82-8.44,8.46-8.45,4.65,0,8.48,3.82,8.47,8.47,0,4.66-3.84,8.48-8.48,8.46Zm8.76-15.14c-1.15-.04-2.09-1.03-2.06-2.16,.03-1.19,1.01-2.13,2.19-2.09,1.18,.03,2.13,1.02,2.09,2.16-.04,1.2-1.02,2.14-2.22,2.1Z"/><path d="M33.23,6.65c-13.67,0-24.74,11.08-24.74,24.74s11.08,24.74,24.74,24.74,24.74-11.08,24.74-24.74S46.9,6.65,33.23,6.65Zm16.42,32.05c0,1.89-.51,3.64-1.61,5.18-1.86,2.61-4.43,3.92-7.63,3.93-4.79,.01-9.58,0-14.38,0-.62,0-1.25-.03-1.85-.17-3.72-.82-6.1-3.08-7.12-6.76-.13-.48-.18-.98-.27-1.48V23.37c.05-.34,.09-.68,.16-1.01,.84-3.72,3.09-6.11,6.77-7.13,.48-.13,.98-.18,1.47-.27h16.04c.1,.02,.21,.05,.31,.06,.9,.1,1.78,.3,2.59,.68,3.53,1.67,5.43,4.46,5.49,8.37,.07,4.88,.02,9.75,.01,14.63Z"/></svg>