<?xml version="1.0" encoding="UTF-8"?>
<svg
  fill="white"
  width="50"
  height="50" id="Calque_1" xmlns="http://www.w3.org/2000/svg" viewBox="0 0 60.08 56.14"><path d="M30.39,3.56C16.72,3.56,5.65,14.64,5.65,28.3s11.08,24.74,24.74,24.74,24.74-11.08,24.74-24.74S44.05,3.56,30.39,3.56Zm-6.42,35.2h-4.46v-14.56h4.46v14.56Zm-2.22-16.08c-1.59,0-2.66-1.07-2.66-2.4s1.07-2.43,2.66-2.43,2.64,1.07,2.64,2.43-1.07,2.4-2.64,2.4Zm19.94,16.08h-4.44v-7.91c0-1.98-1.1-3.08-2.79-3.08s-2.79,1.1-2.79,3.08v7.91h-4.46v-14.56h4.46v1.93c.89-1.23,2.45-2.09,4.41-2.09,3.37,0,5.61,2.3,5.61,6.21v8.51Z"/></svg>