<svg xmlns="http://www.w3.org/2000/svg" viewBox="0 0 119.93 29.7"><defs><style>.cls-1{fill:#fff;}</style></defs><g id="Layer_2" data-name="Layer 2"><g id="Calque_1" data-name="Calque 1"><path class="cls-1" d="M9,18.82l-1.95,2v7.41H0V1.49H7.05V9.78l9-8.93L21.73,6l-7.34,7.4,9,10.78-5.88,5.21Z"/><path class="cls-1" d="M26.24,7.53A4.48,4.48,0,0,1,24.65,6,3.76,3.76,0,0,1,24,4a3.64,3.64,0,0,1,1.29-2.84A4.57,4.57,0,0,1,28.42,0a3.73,3.73,0,0,1,2.75,1,3.63,3.63,0,0,1,1,2.73,4.38,4.38,0,0,1-1.14,3.1,3.71,3.71,0,0,1-2.83,1.22A4,4,0,0,1,26.24,7.53Zm-1.86,1.9h7.41V28.21H25Z"/><path class="cls-1" d="M47.53,2.55A11.34,11.34,0,0,1,51.9,6.17a8.66,8.66,0,0,1,1.65,5.17,9.21,9.21,0,0,1-1.45,5,10.27,10.27,0,0,1-4,3.65,11.62,11.62,0,0,1-5.55,1.35,14.09,14.09,0,0,1-2.12-.18l.17,7.13H33.53L32.82,3.69a19.79,19.79,0,0,1,8.86-2.45A13.39,13.39,0,0,1,47.53,2.55ZM42,15a5,5,0,0,0,2.18-.5,4.34,4.34,0,0,0,1.68-1.35,3,3,0,0,0,.64-1.84,3.73,3.73,0,0,0-1.27-2.89,4.37,4.37,0,0,0-5-.62l.15,6.88A4.54,4.54,0,0,0,42,15Z"/><path class="cls-1" d="M67.94,22.4l-9,0L56.67,28l-7.09-2.91L61.21,1.38l7.08.07,8.33,25.17-7.08,1.7ZM66,15.31l-1.7-6.38-2.56,6.35Z"/><path class="cls-1" d="M94.66,21.8a4.87,4.87,0,0,0,2.77.81V29.7a12.4,12.4,0,0,1-5-1.08,13.19,13.19,0,0,1-4.29-3,11.27,11.27,0,0,1-2.6-4.28l-1-.08L84.63,28H77.54L77.26,2.69a11.45,11.45,0,0,1,3.6-1.11,27.44,27.44,0,0,1,4.66-.41,15.61,15.61,0,0,1,6.56,1.24,9.2,9.2,0,0,1,4.07,3.44A9.36,9.36,0,0,1,97.53,11a9.91,9.91,0,0,1-1.26,5,9.78,9.78,0,0,1-3.45,3.55A5.26,5.26,0,0,0,94.66,21.8ZM84.49,14.42a3.5,3.5,0,0,0,1.38.25A5.36,5.36,0,0,0,88,14.21a4.56,4.56,0,0,0,1.73-1.27,2.84,2.84,0,0,0,.68-1.85A3.24,3.24,0,0,0,90,9.43a3.63,3.63,0,0,0-1.3-1.31,3.34,3.34,0,0,0-1.77-.5,5.92,5.92,0,0,0-1.36.18,4.27,4.27,0,0,0-1.12.39Z"/><path class="cls-1" d="M112,8.12l.07,20.13-7,.32L105,8.29l-7.38.18-.49-7.09L119.37.85l.56,7.09Z"/></g></g></svg>