<svg
  xmlns="http://www.w3.org/2000/svg"
  xmlns:xlink="http://www.w3.org/1999/xlink" 
  viewBox="0 0 129.83 117.42"
  width="45"
  height="45"
>
  <defs>
    <style>.cls-1{fill:url(#Dégradé_sans_nom_2);}.cls-2{fill:#fff;}.cls-3{fill:#1d1d1b;}.cls-4{fill:#f8cb00;}
    </style><radialGradient id="Dégradé_sans_nom_2" cx="-1862.71" cy="7628.83" r="0.84" gradientTransform="matrix(111.68, -1.25, -1.25, -111.68, 217609.19, 849731.81)" gradientUnits="userSpaceOnUse"><stop offset="0" stop-color="#f8c200"/><stop offset="0.28" stop-color="#f6bf01"/><stop offset="0.51" stop-color="#eeb503"/><stop offset="0.72" stop-color="#e2a307"/><stop offset="0.92" stop-color="#d18b0d"/><stop offset="1" stop-color="#c98010"/></radialGradient></defs><g id="Layer_2" data-name="Layer 2"><g id="Calque_1" data-name="Calque 1"><rect class="cls-1" x="5.73" y="1.27" width="114.89" height="114.89" rx="17.22"/><path class="cls-2" d="M103.4,2.53a16,16,0,0,1,15.95,16V98.93a16,16,0,0,1-15.95,16H23A16,16,0,0,1,7,98.93V18.48A16,16,0,0,1,23,2.53H103.4m0-2.53H23A18.5,18.5,0,0,0,4.47,18.48V98.93A18.5,18.5,0,0,0,23,117.42H103.4a18.5,18.5,0,0,0,18.48-18.49V18.48A18.5,18.5,0,0,0,103.4,0Z"/><path class="cls-3" d="M22.47,99.19l-1.6,1.64v6.1H15.06v-22h5.81v6.82l7.44-7.35L33,88.66l-6,6.1,7.41,8.87-4.84,4.29Z"/><path class="cls-3" d="M36.67,89.9a3.62,3.62,0,0,1-1.31-1.24,3.06,3.06,0,0,1,.55-4,3.75,3.75,0,0,1,2.55-.93,3,3,0,0,1,2.26.85,3,3,0,0,1,.87,2.24,3.64,3.64,0,0,1-.94,2.56,3,3,0,0,1-2.33,1A3.31,3.31,0,0,1,36.67,89.9Zm-1.53,1.56h6.1v15.47H35.6Z"/><path class="cls-2" d="M54.19,85.8a9.28,9.28,0,0,1,3.61,3A7.15,7.15,0,0,1,59.15,93,7.65,7.65,0,0,1,58,97.18a8.54,8.54,0,0,1-3.29,3,9.55,9.55,0,0,1-4.56,1.11,11.38,11.38,0,0,1-1.75-.15L48.5,107H42.67l-.59-20.29a16.35,16.35,0,0,1,7.3-2A11,11,0,0,1,54.19,85.8ZM49.61,96.07a4,4,0,0,0,1.79-.41,3.57,3.57,0,0,0,1.39-1.11A2.46,2.46,0,0,0,53.32,93a3.06,3.06,0,0,0-1-2.38,3.58,3.58,0,0,0-4.15-.51l.12,5.66A3.83,3.83,0,0,0,49.61,96.07Z"/><path class="cls-2" d="M71,102.14l-7.41,0-1.87,4.64-5.84-2.39,9.58-19.52,5.83.06,6.86,20.71L72.31,107Zm-1.58-5.83L68,91.05l-2.1,5.23Z"/><path class="cls-2" d="M93,101.65a4,4,0,0,0,2.28.67v5.83a10.07,10.07,0,0,1-4.13-.89,10.79,10.79,0,0,1-3.53-2.46,9.35,9.35,0,0,1-2.15-3.53l-.78-.06,0,5.57H78.91l-.24-20.86a9.31,9.31,0,0,1,3-.92,21.8,21.8,0,0,1,3.83-.34,12.88,12.88,0,0,1,5.4,1,7.62,7.62,0,0,1,3.36,2.83,7.74,7.74,0,0,1,1.14,4.21,8.21,8.21,0,0,1-1,4.14,8.05,8.05,0,0,1-2.85,2.92A4.35,4.35,0,0,0,93,101.65Zm-8.37-6.07a3.09,3.09,0,0,0,1.14.2,4.52,4.52,0,0,0,1.78-.38A3.73,3.73,0,0,0,89,94.35a2.37,2.37,0,0,0,.55-1.52,2.72,2.72,0,0,0-.39-1.37,3.07,3.07,0,0,0-1.07-1.08A2.78,2.78,0,0,0,86.61,90a4.88,4.88,0,0,0-1.12.15,3.28,3.28,0,0,0-.92.32Z"/><path class="cls-2" d="M107.27,90.38l.06,16.58-5.78.26-.06-16.69-6.07.14L95,84.84l18.32-.44.47,5.84Z"/><path class="cls-4" d="M124.44,49.34s1.42,7,1.43,8.63,0,8.35-.71,9.19S118.27,70,116.43,70s-15.29.59-15.29.59l-18.31.48H66.62l-19.81-.82-23.07-1.5-14.42-.5L1.17,65.84.48,64.49S1.91,51.16,2,48.19s.26-9.75.81-10.62,2.8-5.82,10.83-8.65S33,22.53,33,22.53L42.46,19l16.79-4.76,12.38-2.34,11.45-1.17h8.36l8.36.84,11,3.77,6.69,6.76Z"/><path class="cls-3" d="M128.17,25.33c-.26-2.74-1.82-3.9-4.22-4.12-2-.19-4.11,0-6,0a11.81,11.81,0,0,0-1.61-3,28.29,28.29,0,0,0-11.14-7C92.33,6.57,79.4,9.56,66.52,9.77a4.5,4.5,0,0,0-1,.31C55.6,13,45.71,15.92,35.85,18.89a7.32,7.32,0,0,0-2.1,1.43c-1,.77-1.84,1.91-3,2.33C24.8,24.9,18.73,27,12.7,29.12c.08.26.16.52.25.77.5-.12,1-.23,1.52-.36C31,25,47.48,20.29,64,15.86c8.74-2.36,17.38-5.7,26.79-3.59,6.1,1.37,12.27,2.42,18.41,3.62,0,.25-.09.51-.14.75-2.94-.4-5.88-.9-8.83-1.19s-6-.42-9-.5-5.81,0-8.71,0c1.53.72,3.14.6,4.53,1.1s3.3,1.42,3.54,2.48c1,4.49,1.46,9.1,2.14,13.81-2.78.17-4.43-.58-5-3.11s-1.45-5.28-2-7.95a19.07,19.07,0,0,1,0-3.56l-2.51.21c.93,10.24,1.84,20.28,2.76,30.4,12.79,4.17,29.71,5.52,38.6,2.93C122.4,42,120.28,32.7,118.06,23l6-.57c-2.28,3.36-.17,6,.41,8.62s.4,6.42,5.31,6.18C129.26,33.21,128.55,29.28,128.17,25.33Zm-7.36,20c.42,2.56-1.52,4-3.75,4.2a41.15,41.15,0,0,1-10.31-.5c1.61,0,3.21,0,4.82,0,5.82-.19,7.65-2.36,6.91-8.18-.47-3.62-1-7.23-1.44-10.84a3.61,3.61,0,0,1,.07-.8l.43-.15C118.65,34.5,119.9,39.9,120.81,45.36Zm5.23-21,1.11-.2c.44,3.09.9,6.18,1.35,9.26l-.56.1C127.31,30.49,126.67,27.44,126,24.38Z"/><path class="cls-3" d="M125.5,57.36c-1,.23-1.28.26-1.52.34-8.92,3.19-17.71,3.23-26.52-.63-2.64-1.16-5.59-1.61-8.93-2.52.71,2.62,1,3.84,3.38,4.65,2.52.87,4.88,1.9,7.57,1.65,1.41-.13,2.82-.8,4.22-.77,6.94.17,13.88.49,21.35.78-.27,1.88-.37,3.23-.66,4.53-.57,2.54-4.1,3.8-6.48,3-4.53-1.56-9.22-3.34-13.65.46a1.34,1.34,0,0,1-.79.15H86c-.5-2.85-.94-5.3-1.47-8.34a27.51,27.51,0,0,0-.74,2.7c-.25,1.75.19,4.29-.8,5.07s-3.45.1-5.26.08c-3.6,0-7.19,0-10.49,0-.78-2.8-1.11-5-2-6.94-.62-1.23-2.12-2.85-3.25-2.87-4.72-.07-9.45.4-14.17.67l0,.59H58.69c.08.23.15.48.22.72a18.48,18.48,0,0,1-2.66,1,21.16,21.16,0,0,1-3.1.25l4.15,1c-.2,1.8-.38,3.39-.57,5.17L19.78,66.75C17.19,59.54,17,60.43,9,61.44l4.3.56c-.53,1.7-1,3.08-1.37,4.41C.91,66.16.93,64.5.57,58.84.4,61,.36,62.91.06,64.8A2.66,2.66,0,0,0,2.3,68.2c3.23.79,6.45,1.55,10,2.4l1.92,4.2c-2.48,0-4.87.18-7.21,0v4H119.35V74.75c-.92-.06-1.88,0-2.84,0-6.25.24-12.51.06-18.82.06.1-2.33,1.06-3.12,3.26-3.21,6.73-.26,13.45-.85,20.17-1.21,2.78-.14,4.23-1.56,4.36-4.22C125.61,63.3,125.5,60.43,125.5,57.36ZM21.09,74.59c.16-.51.25-.74.3-1,.73-3.62,3.26-3.63,6.12-3.09a11.14,11.14,0,0,0,2.45,0c4.36-.2,4.36-.21,6.06,4Zm23.58.07c2.58-6,7.49-2.52,11.31-3,.7-.1,1.62,1.62,2.91,3Zm25.58.07c.29-2.18,1-3.46,3.58-3.2,3.16.32,6.36.32,9.55.43,2.2.08,2.2.07,3.35,2.77Z"/><path class="cls-3" d="M58.9,19.81c-3,6.42-5.84,12.38-8.66,18.34L49.8,38q-.27-6.06-.53-12.11l-.52,0c-.4,4-.9,7.9-1.17,11.87-.11,1.66-.61,2.37-2.34,2.57-3,.33-5.93,1-9.32,1.54-.21-4.29-.41-8.48-.61-12.67l-.38,0c-.45,4.31-.91,8.62-1.38,13.06l-11.77,2V33.47l-.83,0c-.29,2.9-.74,5.79-.81,8.7-.05,2-.8,2.71-2.66,2.94-3.07.37-6.11.94-9.52,1.48-.17-3.15-.33-6.15-.48-9.16H7.05c-.31,3.06-.62,6.12-.92,9.16-3.39,1.28-4.68.36-4.48-3.13.42-7.25.43-7.24,7.35-9.24q23.76-6.87,47.51-13.77C57.11,20.24,57.73,20.1,58.9,19.81Z"/><path class="cls-3" d="M81.37,16,70.11,18.49l.08.47,11-1.09c0,.28.08.56.13.84L71.35,20l.05.52H82.21c.52,9.13,1,18.06,1.59,27.64-8.12-4.09-15.39-7.65-22.56-11.41a4,4,0,0,1-1.91-5.41c1.61-4,3.4-7.87,5.19-11.76a2.22,2.22,0,0,1,1.34-1.14c4.89-1.09,9.81-2.1,14.72-3.12C80.68,15.33,80.82,15.55,81.37,16Z"/><path class="cls-3" d="M10.1,49.2l46-8a3.08,3.08,0,0,1,1.59,0c6.35,2.83,12.68,5.71,18.84,9-5.36-1.66-10.78-3.17-16.08-5C56,43.6,51.6,45,47.23,45.46c-12.06,1.19-24.08,2.67-36.12,4a9.55,9.55,0,0,1-1.07,0Z"/><path class="cls-3" d="M14.44,52,43.7,48.57a38.82,38.82,0,0,0,4.06-.52,28.73,28.73,0,0,1,19.32,2.39c2.68,1.29,5.61,2.08,8.3,3.57a49.87,49.87,0,0,1-5-1.18C60.05,49.24,49.53,50.07,39,50.92c-8.15.65-16.33,1-24.5,1.55Z"/><text/><path class="cls-3" d="M67.65,64.91,78,65.48l.09.94a6.32,6.32,0,0,1-2,.2c-2.8-.64-5.94,1-8.6-.49C67.56,65.72,67.6,65.32,67.65,64.91Z"/><path class="cls-3" d="M6.65,64.2c.21-.16.43-.46.63-.44,1.33.12,2.66.31,4,.48-.09.32-.17.93-.28.93-1.45.07-2.9,0-4.35,0Z"/>
    </g>
    </g> 
</svg>