<svg xmlns="http://www.w3.org/2000/svg" xmlns:xlink="http://www.w3.org/1999/xlink" version="1.1" width="30" height="30" viewBox="0 0 256 256" xml:space="preserve">

<defs>
</defs>
<g style="stroke: none; stroke-width: 0; stroke-dasharray: none; stroke-linecap: butt; stroke-linejoin: miter; stroke-miterlimit: 10; fill: none; fill-rule: nonzero; opacity: 1;" transform="translate(1.4065934065934016 1.4065934065934016) scale(2.81 2.81)" >
	<path d="M 38.947 73.866 c -4.147 0 -8.057 -1.322 -11.306 -3.824 c -0.604 -0.465 -1.189 -0.976 -1.737 -1.516 c -3.793 -3.749 -5.701 -8.74 -5.374 -14.056 c 0.248 -4.016 1.867 -7.888 4.558 -10.903 c 3.569 -3.997 8.49 -6.198 13.858 -6.198 c 0.918 0 1.851 0.069 2.771 0.205 c 0.49 0.073 0.854 0.494 0.854 0.989 v 9.24 c 0 0.321 -0.154 0.622 -0.414 0.811 c -0.261 0.188 -0.595 0.24 -0.899 0.139 c -0.739 -0.243 -1.507 -0.367 -2.283 -0.367 c -1.962 0 -3.801 0.769 -5.176 2.165 c -1.369 1.39 -2.107 3.229 -2.078 5.178 c 0.038 2.515 1.361 4.794 3.54 6.097 c 1.003 0.602 2.147 0.952 3.309 1.017 c 0.914 0.046 1.82 -0.071 2.688 -0.357 c 2.975 -0.982 4.973 -3.741 4.973 -6.865 l 0.011 -38.486 c 0 -0.552 0.447 -1 1 -1 h 9.1 c 0.549 0 0.994 0.442 1 0.99 c 0.008 0.829 0.093 1.652 0.251 2.448 c 0.626 3.143 2.387 5.942 4.96 7.882 c 2.274 1.715 4.985 2.625 7.843 2.634 c 0.097 -0.006 0.193 0 0.29 0.023 c 0.454 0.104 0.777 0.508 0.777 0.975 v 9.06 c 0 0.552 -0.447 1 -1 1 c -0.002 0 -0.005 0 -0.008 0 c -3.246 0 -6.402 -0.637 -9.38 -1.893 c -1.297 -0.547 -2.541 -1.206 -3.718 -1.968 l 0.042 18.403 c -0.021 4.854 -1.941 9.411 -5.407 12.837 c -2.814 2.782 -6.367 4.559 -10.273 5.138 C 40.802 73.798 39.871 73.866 38.947 73.866 z M 38.947 39.37 c -4.791 0 -9.183 1.964 -12.366 5.53 c -2.394 2.681 -3.834 6.125 -4.054 9.694 c -0.292 4.73 1.407 9.173 4.783 12.51 c 0.489 0.482 1.011 0.938 1.551 1.354 c 2.897 2.229 6.385 3.408 10.086 3.408 c 0.827 0 1.66 -0.062 2.478 -0.182 c 3.482 -0.516 6.649 -2.1 9.159 -4.581 c 3.086 -3.05 4.795 -7.104 4.813 -11.417 l -0.047 -20.333 c -0.001 -0.382 0.216 -0.73 0.558 -0.899 c 0.343 -0.168 0.752 -0.129 1.053 0.105 c 1.497 1.154 3.142 2.113 4.89 2.851 c 2.426 1.023 4.981 1.599 7.61 1.714 v -7.066 c -2.951 -0.186 -5.739 -1.216 -8.114 -3.007 c -2.966 -2.236 -4.996 -5.464 -5.717 -9.088 c -0.12 -0.599 -0.203 -1.211 -0.248 -1.829 H 48.24 L 48.229 55.62 c 0 3.988 -2.55 7.511 -6.345 8.763 c -1.105 0.366 -2.254 0.524 -3.425 0.455 c -1.485 -0.081 -2.946 -0.529 -4.227 -1.297 c -2.777 -1.66 -4.465 -4.569 -4.513 -7.783 c -0.037 -2.489 0.905 -4.837 2.653 -6.61 c 1.754 -1.781 4.099 -2.762 6.601 -2.762 c 0.537 0 1.07 0.046 1.597 0.139 v -7.076 C 40.028 39.396 39.485 39.37 38.947 39.37 z M 70.461 40.146 h 0.01 H 70.461 z" style="stroke: none; stroke-width: 1; stroke-dasharray: none; stroke-linecap: butt; stroke-linejoin: miter; stroke-miterlimit: 10; fill: rgb(0,0,0); fill-rule: nonzero; opacity: 1;" transform=" matrix(1 0 0 1 0 0) " stroke-linecap="round" />
	<path d="M 78.309 90 H 11.691 C 5.245 90 0 84.755 0 78.309 V 11.691 C 0 5.245 5.245 0 11.691 0 h 66.618 C 84.755 0 90 5.245 90 11.691 v 66.618 C 90 84.755 84.755 90 78.309 90 z M 11.691 2 C 6.347 2 2 6.347 2 11.691 v 66.618 C 2 83.652 6.347 88 11.691 88 h 66.618 C 83.652 88 88 83.652 88 78.309 V 11.691 C 88 6.347 83.652 2 78.309 2 H 11.691 z" style="stroke: none; stroke-width: 1; stroke-dasharray: none; stroke-linecap: butt; stroke-linejoin: miter; stroke-miterlimit: 10; fill: rgb(0,0,0); fill-rule: nonzero; opacity: 1;" transform=" matrix(1 0 0 1 0 0) " stroke-linecap="round" />
</g>
</svg>