<svg xmlns="http://www.w3.org/2000/svg" viewBox="0 0 465.6 3.95"><defs><style>.cls-1{fill:#b2b2b2;}</style></defs><g id="Layer_2" data-name="Layer 2"><g id="Calque_1" data-name="Calque 1"><path class="cls-1" d="M451.79,4h11.84a2,2,0,0,0,0-3.95H451.79a2,2,0,0,0,0,4ZM428.12,4H440A2,2,0,0,0,440,0H428.12a2,2,0,0,0,0,4ZM404.44,4h11.84a2,2,0,0,0,0-3.95H404.44a2,2,0,0,0,0,4ZM380.77,4h11.84a2,2,0,0,0,0-3.95H380.77a2,2,0,0,0,0,4ZM357.09,4h11.84a2,2,0,0,0,0-3.95H357.09a2,2,0,0,0,0,4ZM333.42,4h11.84a2,2,0,0,0,0-3.95H333.42a2,2,0,0,0,0,4ZM309.74,4h11.84a2,2,0,0,0,0-3.95H309.74a2,2,0,0,0,0,4ZM286.07,4h11.84a2,2,0,0,0,0-3.95H286.07a2,2,0,0,0,0,4ZM262.39,4h11.84a2,2,0,0,0,0-3.95H262.39a2,2,0,0,0,0,4ZM238.72,4h11.84a2,2,0,0,0,0-3.95H238.72a2,2,0,0,0,0,4ZM215.05,4h11.83a2,2,0,1,0,0-3.95H215.05a2,2,0,1,0,0,4ZM191.37,4h11.84a2,2,0,0,0,0-3.95H191.37a2,2,0,0,0,0,4ZM167.7,4h11.83a2,2,0,1,0,0-3.95H167.7a2,2,0,1,0,0,4ZM144,4h11.84a2,2,0,0,0,0-3.95H144a2,2,0,0,0,0,4ZM120.35,4h11.83a2,2,0,1,0,0-3.95H120.35a2,2,0,1,0,0,4ZM96.67,4h11.84a2,2,0,0,0,0-3.95H96.67a2,2,0,0,0,0,4ZM73,4H84.83a2,2,0,1,0,0-3.95H73a2,2,0,1,0,0,4ZM49.32,4H61.16a2,2,0,0,0,0-3.95H49.32a2,2,0,0,0,0,4ZM25.65,4H37.48a2,2,0,1,0,0-3.95H25.65a2,2,0,1,0,0,4ZM2,4H13.81a2,2,0,0,0,0-3.95H2A2,2,0,0,0,2,4Z"/></g></g></svg>